<svg xmlns="http://www.w3.org/2000/svg" version="1.1" xmlns:xlink="http://www.w3.org/1999/xlink" xmlns:svgjs="http://svgjs.com/svgjs" width="1440" height="560" preserveAspectRatio="none" viewBox="0 0 1440 560">
    <g mask="url(&quot;#SvgjsMask1017&quot;)" fill="none">
        <rect width="1440" height="560" x="0" y="0" fill="rgba(230, 239, 247, 1)"></rect>
        <path d="M280 88.15C258.43 88.15 242.16 115.21 242.16 140C242.16 161.43 259.02 180.58 280 180.58C306.51 180.58 337.14 162 337.14 140C337.14 115.78 305.92 88.15 280 88.15" stroke="rgba(255, 186, 73, 0.5803921568627451)" stroke-width="2"></path>
        <path d="M1400 236.49C1370.18 236.49 1350.79 248.32 1340.37 280C1320.6 340.08 1319.68 361.76 1339.61 420C1349.49 448.87 1371.51 454.22 1400 454.22C1421.45 454.22 1431.45 443.5 1439.49 420C1461.26 356.39 1472.6 340.29 1459.63 280C1452.86 248.54 1429.82 236.49 1400 236.49" stroke="rgba(255, 186, 73, 0.5803921568627451)" stroke-width="2"></path>
        <path d="M82.82 140C41.8 87.2 32.82 90.48 0 35C-8.59 20.48 -14 3.5 0 0C56 -14 70 0 140 0C210 0 210 0 280 0C350 0 350 0 420 0C490 0 490 0 560 0C630 0 630 0 700 0C731.35 0 758.28 -21.23 762.69 0C772.81 48.77 747.52 70.44 729.06 140C716.17 188.57 717.8 236.25 700 236.25C681.27 236.25 684.17 184.4 656 140C614.17 74.06 611.43 15.56 560 15.56C503.43 15.56 463.89 67.8 440 140C420.14 200.02 435.63 230.27 472.5 280C495.63 311.21 515.45 298.62 560 301.88C629.2 306.95 630.88 304.47 700 296.67C727.81 293.53 726.71 287.57 753.85 280C796.71 268.04 800.26 257.6 840 257.6C853.51 257.6 860.36 267.28 860.36 280C860.36 300.02 850.18 301.54 840 323.08C817.09 371.54 816.12 371.1 794.18 420C762.97 489.56 772.27 502.67 733.7 560C725.18 572.67 716.85 560 700 560C656.66 560 654.08 569.32 613.33 560C584.08 553.32 587.77 541.92 560 528C491.1 493.46 485.4 502 420 463.08C394.66 448 402.29 437.82 378.52 420C332.29 385.35 324.12 395.11 280 358.14C240.57 325.11 211.43 315.06 211.43 280C211.43 251.64 245.71 255.65 280 231.3C344.28 185.65 408.57 189.49 408.57 140C408.57 85.51 338.33 23.33 280 23.33C231.47 23.33 237.43 81.66 194.86 140C167.43 177.59 167.8 215.19 140 215.19C111.78 215.19 111.8 177.3 82.82 140" stroke="rgba(255, 186, 73, 0.5803921568627451)" stroke-width="2"></path>
        <path d="M980 70.84C934.63 54.81 905.57 20.54 905.57 0C905.57 -14.88 942.79 0 980 0C1050 0 1050 0 1120 0C1175.51 0 1231.03 -17.14 1231.03 0C1231.03 20.74 1181.46 58.42 1120 75.76C1055.95 93.84 1041.85 92.69 980 70.84" stroke="rgba(255, 186, 73, 0.5803921568627451)" stroke-width="2"></path>
        <path d="M1317.27 140C1317.27 84.85 1354.18 10 1400 10C1450.7 10 1510.3 87.56 1510.3 140C1510.3 177.15 1453.71 189.19 1400 189.19C1357.2 189.19 1317.27 174.45 1317.27 140" stroke="rgba(255, 186, 73, 0.5803921568627451)" stroke-width="2"></path>
        <path d="M1228.89 280C1237.42 258.67 1247.16 245 1260 245C1270.5 245 1274.38 261.21 1275.56 280C1279.87 348.71 1275.29 350.13 1270.98 420C1267.51 476.13 1278.63 532 1260 532C1238.14 532 1197.41 480 1190 420C1181.85 354 1202.42 346.17 1228.89 280" stroke="rgba(255, 186, 73, 0.5803921568627451)" stroke-width="2"></path>
        <path d="M1524.44 280C1533.16 247.94 1536.06 215.38 1540 215.38C1543.84 215.38 1540 247.69 1540 280C1540 350 1540 350 1540 420C1540 490 1575 525 1540 560C1505 595 1470 560 1400 560C1331.59 560 1263.18 575.83 1263.18 560C1263.18 542.38 1336.19 533.5 1400 493.11C1446.78 463.5 1457.36 466.24 1484.36 420C1519.58 359.68 1505.34 350.25 1524.44 280" stroke="rgba(255, 186, 73, 0.5803921568627451)" stroke-width="2"></path>
        <path d="M0 339.45C33.37 339.45 55.04 377.9 106.91 420C125.04 434.72 120.43 440.56 140 453.09C206.97 495.97 212.54 488.51 280 530.83C297.76 541.97 310.43 551.53 310.43 560C310.43 566.11 295.22 560 280 560C210 560 210 560 140 560C70 560 35 595 0 560C-35 525 0 490 0 420C0 379.73 -20.08 339.45 0 339.45" stroke="rgba(255, 186, 73, 0.5803921568627451)" stroke-width="2"></path>
        <path d="M888.46 420C888.46 385 932.29 361.23 980 361.23C1040.69 361.23 1105.26 383.67 1105.26 420C1105.26 461.62 1038.85 517.14 980 517.14C930.45 517.14 888.46 462.95 888.46 420" stroke="rgba(255, 186, 73, 0.5803921568627451)" stroke-width="2"></path>
        <path d="M132.11 140C98.43 70.67 64.28 47.52 66.96 0C68.23 -22.48 103.48 0 140 0C170 0 198.92 -20.05 200 0C202.7 49.95 175.2 70.76 147.57 140C145.2 145.95 143.84 150.37 140 150.37C136.11 150.37 134.95 145.85 132.11 140" stroke="rgba(255, 186, 73, 0.5803921568627451)" stroke-width="2"></path>
        <path d="M420 45.16C394.24 45.16 366.15 12.78 366.15 0C366.15 -9.8 393.08 0 420 0C441.88 0 463.75 -9.26 463.75 0C463.75 13.32 443.04 45.16 420 45.16" stroke="rgba(255, 186, 73, 0.5803921568627451)" stroke-width="2"></path>
        <path d="M700 36.84C690.17 36.84 674.07 11.69 674.07 0C674.07 -6.73 687.04 0 700 0C705.22 0 710.45 -3.95 710.45 0C710.45 14.47 708.36 36.84 700 36.84" stroke="rgba(255, 186, 73, 0.5803921568627451)" stroke-width="2"></path>
        <path d="M980 28.67C960.53 24.71 949.87 8.31 949.87 0C949.87 -6.02 964.93 0 980 0C1050 0 1050 0 1120 0C1145.35 0 1170.69 -7.82 1170.69 0C1170.69 9.47 1149.04 30.22 1120 34.59C1053.69 44.56 1045.6 42.01 980 28.67" stroke="rgba(255, 186, 73, 0.5803921568627451)" stroke-width="2"></path>
        <path d="M1396.82 140C1396.82 137.88 1398.24 135 1400 135C1401.95 135 1404.24 137.98 1404.24 140C1404.24 141.43 1402.06 141.89 1400 141.89C1398.35 141.89 1396.82 141.32 1396.82 140" stroke="rgba(255, 186, 73, 0.5803921568627451)" stroke-width="2"></path>
        <path d="M0 387.4C13.51 387.4 43.27 398.7 43.27 420C43.27 457.5 11.44 505 0 505C-10.2 505 0 462.5 0 420C0 403.7 -8.13 387.4 0 387.4" stroke="rgba(255, 186, 73, 0.5803921568627451)" stroke-width="2"></path>
        <path d="M545.26 420C545.26 415.77 551.74 413.38 560 411.25C629.11 393.38 636.87 376.76 700 380C722.15 381.14 730.55 398.15 730.55 420C730.55 453.15 728.38 488.67 700 490C643.11 492.67 629.73 459.54 560 428C552.36 424.54 545.26 424.14 545.26 420" stroke="rgba(255, 186, 73, 0.5803921568627451)" stroke-width="2"></path>
        <path d="M955.77 420C955.77 410.73 967.37 404.44 980 404.44C996.07 404.44 1013.16 410.38 1013.16 420C1013.16 431.02 995.58 445.71 980 445.71C966.88 445.71 955.77 431.37 955.77 420" stroke="rgba(255, 186, 73, 0.5803921568627451)" stroke-width="2"></path>
        <path d="M1529.23 420C1541.2 407.55 1537.24 386.4 1540 386.4C1542.63 386.4 1540 403.2 1540 420C1540 490 1575 525 1540 560C1505 595 1470 560 1400 560C1371.36 560 1342.73 566.63 1342.73 560C1342.73 552.63 1374.68 551.01 1400 532C1467.93 481.01 1471.2 480.35 1529.23 420" stroke="rgba(255, 186, 73, 0.5803921568627451)" stroke-width="2"></path>
        <path d="M55 560C55 548.56 98.81 516.73 140 516.73C173.47 516.73 204.32 548.18 204.32 560C204.32 569.81 172.16 560 140 560C97.5 560 55 570.2 55 560" stroke="rgba(255, 186, 73, 0.5803921568627451)" stroke-width="2"></path>
    </g>
    <defs>
        <mask id="SvgjsMask1017">
            <rect width="1440" height="560" fill="#ffffff"></rect>
        </mask>
    </defs>
</svg>